<svg width="640" height="400" viewBox="0 0 640 400" fill="none" xmlns="http://www.w3.org/2000/svg">
  <rect width="640" height="400" rx="28" fill="url(#paint0_linear)" />
  <rect x="84" y="84" width="472" height="232" rx="20" fill="white" opacity="0.95" />
  <circle cx="180" cy="188" r="54" fill="#10B981" opacity="0.15" />
  <path d="M180 148C158 148 140 166 140 188C140 210 158 228 180 228C202 228 220 210 220 188" stroke="#10B981" stroke-width="10" stroke-linecap="round" stroke-linejoin="round" />
  <path d="M180 164C192 164 204 172 210 184" stroke="#10B981" stroke-width="8" stroke-linecap="round" stroke-linejoin="round" />
  <rect x="248" y="132" width="204" height="16" rx="8" fill="#10B981" opacity="0.8" />
  <rect x="248" y="162" width="256" height="12" rx="6" fill="#6EE7B7" />
  <rect x="248" y="188" width="224" height="12" rx="6" fill="#A7F3D0" />
  <rect x="248" y="214" width="148" height="12" rx="6" fill="#D1FAE5" />
  <defs>
    <linearGradient id="paint0_linear" x1="72" y1="52" x2="580" y2="360" gradientUnits="userSpaceOnUse">
      <stop stop-color="#047857" />
      <stop offset="1" stop-color="#10B981" />
    </linearGradient>
  </defs>
</svg>
