<svg width="640" height="400" viewBox="0 0 640 400" fill="none" xmlns="http://www.w3.org/2000/svg">
  <rect width="640" height="400" rx="28" fill="url(#paint0_linear)" />
  <rect x="84" y="86" width="472" height="228" rx="18" fill="white" opacity="0.94" />
  <rect x="120" y="118" width="180" height="20" rx="10" fill="#2563EB" opacity="0.85" />
  <rect x="120" y="154" width="140" height="12" rx="6" fill="#DBEAFE" />
  <rect x="120" y="176" width="192" height="12" rx="6" fill="#BFDBFE" />
  <rect x="332" y="128" width="188" height="150" rx="12" fill="#EEF2FF" />
  <path d="M356 254L356 160C383 164 402 172 420 184C438 196 456 208 484 212V254H356Z" fill="#2563EB" fill-opacity="0.6" />
  <path d="M356 210C378 206 398 194 418 182C438 170 458 158 484 156" stroke="#1D4ED8" stroke-width="10" stroke-linecap="round" stroke-linejoin="round" />
  <path d="M120 226H276" stroke="#2563EB" stroke-width="10" stroke-linecap="round" stroke-dasharray="16 16" opacity="0.7" />
  <defs>
    <linearGradient id="paint0_linear" x1="60" y1="40" x2="596" y2="360" gradientUnits="userSpaceOnUse">
      <stop stop-color="#1D4ED8" />
      <stop offset="1" stop-color="#38BDF8" />
    </linearGradient>
  </defs>
</svg>
