<svg width="640" height="400" viewBox="0 0 640 400" fill="none" xmlns="http://www.w3.org/2000/svg">
  <rect width="640" height="400" rx="28" fill="url(#paint0_linear)" />
  <rect x="96" y="84" width="180" height="248" rx="24" fill="white" opacity="0.95" />
  <rect x="268" y="108" width="276" height="212" rx="24" fill="rgba(255,255,255,0.2)" />
  <rect x="122" y="126" width="132" height="24" rx="12" fill="#FDE68A" />
  <rect x="122" y="168" width="132" height="16" rx="8" fill="#FBBF24" opacity="0.8" />
  <rect x="122" y="198" width="132" height="16" rx="8" fill="#FEF3C7" />
  <rect x="122" y="228" width="132" height="16" rx="8" fill="#FCD34D" />
  <rect x="122" y="258" width="132" height="16" rx="8" fill="#FEF9C3" />
  <rect x="300" y="144" width="216" height="20" rx="10" fill="#F97316" opacity="0.9" />
  <rect x="300" y="178" width="176" height="12" rx="6" fill="#FDBA74" />
  <rect x="300" y="202" width="196" height="12" rx="6" fill="#FED7AA" />
  <circle cx="408" cy="252" r="52" fill="#F97316" opacity="0.2" />
  <path d="M372 252C372 231 389 214 410 214C431 214 448 231 448 252" stroke="#F97316" stroke-width="10" stroke-linecap="round" stroke-linejoin="round" />
  <defs>
    <linearGradient id="paint0_linear" x1="88" y1="52" x2="560" y2="360" gradientUnits="userSpaceOnUse">
      <stop stop-color="#B45309" />
      <stop offset="1" stop-color="#F59E0B" />
    </linearGradient>
  </defs>
</svg>
