<svg width="640" height="400" viewBox="0 0 640 400" fill="none" xmlns="http://www.w3.org/2000/svg">
  <rect width="640" height="400" rx="28" fill="url(#paint0_linear)" />
  <rect x="96" y="84" width="220" height="248" rx="24" fill="white" opacity="0.95" />
  <rect x="324" y="116" width="220" height="196" rx="20" fill="rgba(15,23,42,0.2)" />
  <rect x="122" y="132" width="168" height="24" rx="12" fill="#F1F5F9" />
  <rect x="122" y="174" width="132" height="16" rx="8" fill="#CBD5F5" />
  <rect x="122" y="204" width="168" height="16" rx="8" fill="#6366F1" opacity="0.8" />
  <rect x="122" y="234" width="132" height="16" rx="8" fill="#E0E7FF" />
  <rect x="122" y="264" width="168" height="16" rx="8" fill="#A5B4FC" />
  <rect x="346" y="148" width="176" height="20" rx="10" fill="#38BDF8" opacity="0.8" />
  <rect x="346" y="182" width="148" height="12" rx="6" fill="#BAE6FD" />
  <rect x="346" y="206" width="160" height="12" rx="6" fill="#E0F2FE" />
  <rect x="346" y="234" width="120" height="12" rx="6" fill="#F0F9FF" />
  <defs>
    <linearGradient id="paint0_linear" x1="88" y1="52" x2="564" y2="356" gradientUnits="userSpaceOnUse">
      <stop stop-color="#0F172A" />
      <stop offset="1" stop-color="#2563EB" />
    </linearGradient>
  </defs>
</svg>
