<svg width="640" height="400" viewBox="0 0 640 400" fill="none" xmlns="http://www.w3.org/2000/svg">
  <rect width="640" height="400" rx="28" fill="url(#paint0_linear)" />
  <rect x="92" y="88" width="456" height="224" rx="24" fill="white" opacity="0.94" />
  <rect x="132" y="128" width="376" height="160" rx="20" fill="#ECFEFF" />
  <path d="M172 236C208 192 248 188 294 220C340 252 380 248 420 204C444 178 476 160 512 172" stroke="#0EA5E9" stroke-width="12" stroke-linecap="round" stroke-linejoin="round" />
  <circle cx="212" cy="212" r="18" fill="#22D3EE" />
  <circle cx="296" cy="228" r="18" fill="#22D3EE" opacity="0.7" />
  <circle cx="380" cy="220" r="18" fill="#22D3EE" opacity="0.5" />
  <rect x="160" y="150" width="120" height="20" rx="10" fill="#0EA5E9" opacity="0.75" />
  <rect x="300" y="150" width="140" height="12" rx="6" fill="#38BDF8" />
  <rect x="300" y="172" width="120" height="12" rx="6" fill="#BAE6FD" />
  <defs>
    <linearGradient id="paint0_linear" x1="104" y1="56" x2="560" y2="360" gradientUnits="userSpaceOnUse">
      <stop stop-color="#0369A1" />
      <stop offset="1" stop-color="#06B6D4" />
    </linearGradient>
  </defs>
</svg>
